<?xml version="1.0"?>
<svg xmlns="http://www.w3.org/2000/svg" xmlns:xlink="http://www.w3.org/1999/xlink" xmlns:svgjs="http://svgjs.com/svgjs" version="1.1" width="512" height="512" x="0" y="0" viewBox="0 0 511.882 511.882" style="enable-background:new 0 0 512 512" xml:space="preserve" class=""><g><g xmlns="http://www.w3.org/2000/svg"><path d="m481.826 240.94h-75.354v-15.118c0-19.62-12.593-36.347-30.117-42.544l.002-62.868c-.002-.005-.005-.01-.007-.015-.005-3.897-1.52-7.726-4.385-10.591l-105.409-105.408c-2.715-2.716-6.466-4.396-10.609-4.396h-225.891c-8.284 0-15 6.716-15 15v481.881c0 8.284 6.716 15 15 15l421.651.001c8.284 0 15-6.716 15-15v-165.706h15.118c8.284 0 15-6.716 15-15v-60.236c.001-8.284-6.715-15-14.999-15zm-105.354 0h-30.235v-15.118c0-8.336 6.782-15.117 15.118-15.117s15.117 6.781 15.117 15.117zm-105.526-189.728 54.199 54.199h-54.199zm-225.89-21.212h195.89v90.411c0 8.284 6.716 15 15 15h90.411l-.001 47.867c-17.525 6.197-30.118 22.924-30.118 42.544v15.118h-75.353c-8.284 0-15 6.716-15 15v60.235c0 8.284 6.716 15 15 15h15.117v150.705h-210.946zm391.652 451.882h-30.235v-82.883c0-8.284-6.716-15-15-15s-15 6.716-15 15v82.883l-30.235-.001v-82.882c0-8.284-6.716-15-15-15s-15 6.716-15 15v82.882h-30.235v-150.705h150.706v150.706zm30.118-180.706h-210.942v-30.236h210.941v30.236z" fill="#ffffff" data-original="#000000" style="" class=""/><path d="m90.296 90.234h90.349c8.284 0 15-6.716 15-15s-6.716-15-15-15h-90.349c-8.284 0-15 6.716-15 15s6.716 15 15 15z" fill="#ffffff" data-original="#000000" style="" class=""/><path d="m90.296 150.47h90.349c8.284 0 15-6.716 15-15s-6.716-15-15-15h-90.349c-8.284 0-15 6.716-15 15s6.716 15 15 15z" fill="#ffffff" data-original="#000000" style="" class=""/><path d="m90.296 210.705h90.349c8.284 0 15-6.716 15-15s-6.716-15-15-15h-90.349c-8.284 0-15 6.716-15 15s6.716 15 15 15z" fill="#ffffff" data-original="#000000" style="" class=""/><path d="m180.649 240.94h-90.353c-8.284 0-15 6.716-15 15s6.716 15 15 15h90.353c8.284 0 15-6.716 15-15s-6.716-15-15-15z" fill="#ffffff" data-original="#000000" style="" class=""/><path d="m180.649 301.176h-90.353c-8.284 0-15 6.716-15 15s6.716 15 15 15h90.353c8.284 0 15-6.716 15-15s-6.716-15-15-15z" fill="#ffffff" data-original="#000000" style="" class=""/></g></g></svg>
